solid OpenSCAD_Model
  facet normal -1 0 0
    outer loop
      vertex -15 10 0
      vertex -15 10 5
      vertex -15 25 0
    endloop
  endfacet
  facet normal -1 0 0
    outer loop
      vertex -15 25 0
      vertex -15 10 5
      vertex -15 25 5
    endloop
  endfacet
  facet normal 0 -1 0
    outer loop
      vertex -15 10 5
      vertex -15 10 0
      vertex 0 10 0
    endloop
  endfacet
  facet normal 0 -1 0
    outer loop
      vertex 0 10 5
      vertex -15 10 5
      vertex 0 10 0
    endloop
  endfacet
  facet normal 0 0 -1
    outer loop
      vertex -6.7 18.8856 0
      vertex -15 25 0
      vertex 0 25 0
    endloop
  endfacet
  facet normal 0 0 -1
    outer loop
      vertex 9.8 25.6144 0
      vertex 145 110 0
      vertex 0 10 0
    endloop
  endfacet
  facet normal 0 0 -1
    outer loop
      vertex -9.1 102.5 0
      vertex -15 95 0
      vertex -15 110 0
    endloop
  endfacet
  facet normal 0 0 -1
    outer loop
      vertex -6.7 103.886 0
      vertex -15 110 0
      vertex 145 110 0
    endloop
  endfacet
  facet normal 0 0 -1
    outer loop
      vertex 78.8 96.6144 0
      vertex 145 110 0
      vertex 0 25 0
    endloop
  endfacet
  facet normal 0 0 -1
    outer loop
      vertex 138.3 101.114 0
      vertex 145 110 0
      vertex 145 95 0
    endloop
  endfacet
  facet normal 0 0 -1
    outer loop
      vertex -9.1 17.5 0
      vertex -15 25 0
      vertex -8.3 18.8856 0
    endloop
  endfacet
  facet normal 0 0 -1
    outer loop
      vertex 0 10 0
      vertex 130 25 0
      vertex 145 25 0
    endloop
  endfacet
  facet normal 0 0 -1
    outer loop
      vertex 138.3 16.1144 0
      vertex 145 25 0
      vertex 145 10 0
    endloop
  endfacet
  facet normal 0 0 -1
    outer loop
      vertex 130 25 0
      vertex 0 10 0
      vertex 130 95 0
    endloop
  endfacet
  facet normal 0 0 -1
    outer loop
      vertex 130 10 0
      vertex 130 0 0
      vertex 0 10 0
    endloop
  endfacet
  facet normal 0 0 -1
    outer loop
      vertex -15 10 0
      vertex -15 25 0
      vertex -9.1 17.5 0
    endloop
  endfacet
  facet normal 0 0 -1
    outer loop
      vertex -15 10 0
      vertex -9.1 17.5 0
      vertex -8.3 16.1144 0
    endloop
  endfacet
  facet normal 0 0 -1
    outer loop
      vertex -15 10 0
      vertex -8.3 16.1144 0
      vertex 0 10 0
    endloop
  endfacet
  facet normal 0 0 -1
    outer loop
      vertex -6.7 16.1144 0
      vertex 0 10 0
      vertex -8.3 16.1144 0
    endloop
  endfacet
  facet normal 0 0 -1
    outer loop
      vertex -5.9 17.5 0
      vertex 0 10 0
      vertex -6.7 16.1144 0
    endloop
  endfacet
  facet normal 0 0 -1
    outer loop
      vertex -9.1 102.5 0
      vertex -15 110 0
      vertex -8.3 103.886 0
    endloop
  endfacet
  facet normal 0 0 -1
    outer loop
      vertex 0 10 0
      vertex -5.9 17.5 0
      vertex 0 25 0
    endloop
  endfacet
  facet normal 0 0 -1
    outer loop
      vertex -5.9 17.5 0
      vertex -6.7 18.8856 0
      vertex 0 25 0
    endloop
  endfacet
  facet normal 0 0 -1
    outer loop
      vertex -8.3 18.8856 0
      vertex -15 25 0
      vertex -6.7 18.8856 0
    endloop
  endfacet
  facet normal 0 0 -1
    outer loop
      vertex -8.3 101.114 0
      vertex -15 95 0
      vertex -9.1 102.5 0
    endloop
  endfacet
  facet normal 0 0 -1
    outer loop
      vertex -6.7 101.114 0
      vertex 0 95 0
      vertex -8.3 101.114 0
    endloop
  endfacet
  facet normal 0 0 -1
    outer loop
      vertex 0 95 0
      vertex -15 95 0
      vertex -8.3 101.114 0
    endloop
  endfacet
  facet normal 0 0 -1
    outer loop
      vertex -5.9 102.5 0
      vertex 0 95 0
      vertex -6.7 101.114 0
    endloop
  endfacet
  facet normal 0 0 -1
    outer loop
      vertex 9.8 28.3856 0
      vertex 145 110 0
      vertex 10.6 27 0
    endloop
  endfacet
  facet normal 0 0 -1
    outer loop
      vertex 9.8 99.3856 0
      vertex -5.9 102.5 0
      vertex 145 110 0
    endloop
  endfacet
  facet normal 0 0 -1
    outer loop
      vertex -5.9 102.5 0
      vertex -6.7 103.886 0
      vertex 145 110 0
    endloop
  endfacet
  facet normal 0 0 -1
    outer loop
      vertex -8.3 103.886 0
      vertex -15 110 0
      vertex -6.7 103.886 0
    endloop
  endfacet
  facet normal 0 0 -1
    outer loop
      vertex 10.6 98 0
      vertex 145 110 0
      vertex 9.8 96.6144 0
    endloop
  endfacet
  facet normal 0 0 -1
    outer loop
      vertex 0 25 0
      vertex 7.4 27 0
      vertex 0 10 0
    endloop
  endfacet
  facet normal 0 0 -1
    outer loop
      vertex 8.2 28.3856 0
      vertex 145 110 0
      vertex 9.8 28.3856 0
    endloop
  endfacet
  facet normal 0 0 -1
    outer loop
      vertex 7.4 27 0
      vertex 8.2 25.6144 0
      vertex 0 10 0
    endloop
  endfacet
  facet normal 0 0 -1
    outer loop
      vertex 10.6 27 0
      vertex 145 110 0
      vertex 9.8 25.6144 0
    endloop
  endfacet
  facet normal 0 0 -1
    outer loop
      vertex 8.2 25.6144 0
      vertex 9.8 25.6144 0
      vertex 0 10 0
    endloop
  endfacet
  facet normal 0 0 -1
    outer loop
      vertex 0 25 0
      vertex 145 110 0
      vertex 8.2 28.3856 0
    endloop
  endfacet
  facet normal 0 0 -1
    outer loop
      vertex 0 25 0
      vertex 8.2 28.3856 0
      vertex 7.4 27 0
    endloop
  endfacet
  facet normal 0 0 -1
    outer loop
      vertex 0 95 0
      vertex -5.9 102.5 0
      vertex 7.4 98 0
    endloop
  endfacet
  facet normal 0 0 -1
    outer loop
      vertex 0 95 0
      vertex 7.4 98 0
      vertex 8.2 96.6144 0
    endloop
  endfacet
  facet normal 0 0 -1
    outer loop
      vertex 0 95 0
      vertex 8.2 96.6144 0
      vertex 9.8 96.6144 0
    endloop
  endfacet
  facet normal 0 0 -1
    outer loop
      vertex 0 95 0
      vertex 9.8 96.6144 0
      vertex 145 110 0
    endloop
  endfacet
  facet normal 0 0 -1
    outer loop
      vertex 9.8 99.3856 0
      vertex 145 110 0
      vertex 10.6 98 0
    endloop
  endfacet
  facet normal 0 0 -1
    outer loop
      vertex 8.2 99.3856 0
      vertex -5.9 102.5 0
      vertex 9.8 99.3856 0
    endloop
  endfacet
  facet normal 0 0 -1
    outer loop
      vertex 76.4 98 0
      vertex 0 95 0
      vertex 77.2 99.3856 0
    endloop
  endfacet
  facet normal 0 0 -1
    outer loop
      vertex 7.4 98 0
      vertex -5.9 102.5 0
      vertex 8.2 99.3856 0
    endloop
  endfacet
  facet normal 0 0 -1
    outer loop
      vertex 136.7 16.1144 0
      vertex 130 10 0
      vertex 135.9 17.5 0
    endloop
  endfacet
  facet normal 0 0 -1
    outer loop
      vertex 0 95 0
      vertex 76.4 98 0
      vertex 0 25 0
    endloop
  endfacet
  facet normal 0 0 -1
    outer loop
      vertex 78.8 99.3856 0
      vertex 145 110 0
      vertex 79.6 98 0
    endloop
  endfacet
  facet normal 0 0 -1
    outer loop
      vertex 76.4 98 0
      vertex 77.2 96.6144 0
      vertex 0 25 0
    endloop
  endfacet
  facet normal 0 0 -1
    outer loop
      vertex 77.2 96.6144 0
      vertex 78.8 96.6144 0
      vertex 0 25 0
    endloop
  endfacet
  facet normal 0 0 -1
    outer loop
      vertex 136.7 18.8856 0
      vertex 145 25 0
      vertex 138.3 18.8856 0
    endloop
  endfacet
  facet normal 0 0 -1
    outer loop
      vertex 77.2 99.3856 0
      vertex 145 110 0
      vertex 78.8 99.3856 0
    endloop
  endfacet
  facet normal 0 0 -1
    outer loop
      vertex 79.6 98 0
      vertex 145 110 0
      vertex 78.8 96.6144 0
    endloop
  endfacet
  facet normal 0 0 -1
    outer loop
      vertex 0 95 0
      vertex 145 110 0
      vertex 77.2 99.3856 0
    endloop
  endfacet
  facet normal 0 0 -1
    outer loop
      vertex 136.7 101.114 0
      vertex 130 95 0
      vertex 135.9 102.5 0
    endloop
  endfacet
  facet normal 0 0 -1
    outer loop
      vertex 0 10 0
      vertex 135.9 17.5 0
      vertex 130 10 0
    endloop
  endfacet
  facet normal 0 0 -1
    outer loop
      vertex 138.3 18.8856 0
      vertex 145 25 0
      vertex 139.1 17.5 0
    endloop
  endfacet
  facet normal 0 0 -1
    outer loop
      vertex 130 10 0
      vertex 136.7 16.1144 0
      vertex 145 10 0
    endloop
  endfacet
  facet normal 0 0 -1
    outer loop
      vertex 139.1 17.5 0
      vertex 145 25 0
      vertex 138.3 16.1144 0
    endloop
  endfacet
  facet normal 0 0 -1
    outer loop
      vertex 136.7 16.1144 0
      vertex 138.3 16.1144 0
      vertex 145 10 0
    endloop
  endfacet
  facet normal 0 0 -1
    outer loop
      vertex 136.7 103.886 0
      vertex 145 110 0
      vertex 138.3 103.886 0
    endloop
  endfacet
  facet normal 0 0 -1
    outer loop
      vertex 0 10 0
      vertex 145 25 0
      vertex 136.7 18.8856 0
    endloop
  endfacet
  facet normal 0 0 -1
    outer loop
      vertex 0 10 0
      vertex 136.7 18.8856 0
      vertex 135.9 17.5 0
    endloop
  endfacet
  facet normal 0 0 -1
    outer loop
      vertex 0 10 0
      vertex 135.9 102.5 0
      vertex 130 95 0
    endloop
  endfacet
  facet normal 0 0 -1
    outer loop
      vertex 138.3 103.886 0
      vertex 145 110 0
      vertex 139.1 102.5 0
    endloop
  endfacet
  facet normal 0 0 -1
    outer loop
      vertex 130 95 0
      vertex 136.7 101.114 0
      vertex 145 95 0
    endloop
  endfacet
  facet normal 0 0 -1
    outer loop
      vertex 139.1 102.5 0
      vertex 145 110 0
      vertex 138.3 101.114 0
    endloop
  endfacet
  facet normal 0 0 -1
    outer loop
      vertex 136.7 101.114 0
      vertex 138.3 101.114 0
      vertex 145 95 0
    endloop
  endfacet
  facet normal 0 0 -1
    outer loop
      vertex 0 10 0
      vertex 145 110 0
      vertex 136.7 103.886 0
    endloop
  endfacet
  facet normal 0 0 -1
    outer loop
      vertex 0 10 0
      vertex 136.7 103.886 0
      vertex 135.9 102.5 0
    endloop
  endfacet
  facet normal 0 0 -1
    outer loop
      vertex 0 10 0
      vertex 130 0 0
      vertex 0 0 0
    endloop
  endfacet
  facet normal 0 1 0
    outer loop
      vertex -15 25 0
      vertex -15 25 5
      vertex 0 25 0
    endloop
  endfacet
  facet normal 0 1 0
    outer loop
      vertex 0 25 0
      vertex -15 25 5
      vertex 0 25 5
    endloop
  endfacet
  facet normal 0 0 1
    outer loop
      vertex -8.3 16.1144 5
      vertex -15 10 5
      vertex 0 10 5
    endloop
  endfacet
  facet normal 0 0 1
    outer loop
      vertex -15 25 5
      vertex -15 10 5
      vertex -8.3 16.1144 5
    endloop
  endfacet
  facet normal 0 0 1
    outer loop
      vertex -15 25 5
      vertex -8.3 16.1144 5
      vertex -9.1 17.5 5
    endloop
  endfacet
  facet normal 0 0 1
    outer loop
      vertex 0 25 5
      vertex -15 25 5
      vertex -8.3 18.8856 5
    endloop
  endfacet
  facet normal 0 0 1
    outer loop
      vertex 0 25 5
      vertex -6.7 18.8856 5
      vertex 0 10 5
    endloop
  endfacet
  facet normal 0 0 1
    outer loop
      vertex 0 25 5
      vertex -8.3 18.8856 5
      vertex -6.7 18.8856 5
    endloop
  endfacet
  facet normal 0 0 1
    outer loop
      vertex -6.7 18.8856 5
      vertex -5.9 17.5 5
      vertex 0 10 5
    endloop
  endfacet
  facet normal 0 0 1
    outer loop
      vertex -5.9 17.5 5
      vertex -6.7 16.1144 5
      vertex 0 10 5
    endloop
  endfacet
  facet normal 0 0 1
    outer loop
      vertex -6.7 16.1144 5
      vertex -8.3 16.1144 5
      vertex 0 10 5
    endloop
  endfacet
  facet normal 0 0 1
    outer loop
      vertex -9.1 17.5 5
      vertex -8.3 18.8856 5
      vertex -15 25 5
    endloop
  endfacet
  facet normal -1 0 0
    outer loop
      vertex 0 0 0
      vertex 0 0 50
      vertex 0 10 0
    endloop
  endfacet
  facet normal -1 0 0
    outer loop
      vertex 0 72.1183 33.2135
      vertex 0 0 50
      vertex 0 110 50
    endloop
  endfacet
  facet normal -1 0 0
    outer loop
      vertex 0 98.7903 15.5193
      vertex 0 110 50
      vertex 0 110 5
    endloop
  endfacet
  facet normal -1 0 0
    outer loop
      vertex 0 73.8817 33.2135
      vertex 0 110 50
      vertex 0 74.4266 31.5365
    endloop
  endfacet
  facet normal -1 0 0
    outer loop
      vertex 0 25 5
      vertex 0 95 5
      vertex 0 25 0
    endloop
  endfacet
  facet normal -1 0 0
    outer loop
      vertex 0 73 30.5
      vertex 0 110 50
      vertex 0 25 5
    endloop
  endfacet
  facet normal -1 0 0
    outer loop
      vertex 0 96.1183 9.21352
      vertex 0 98.7903 15.5193
      vertex 0 97.8817 9.21352
    endloop
  endfacet
  facet normal -1 0 0
    outer loop
      vertex 0 10 0
      vertex 0 0 50
      vertex 0 10 5
    endloop
  endfacet
  facet normal -1 0 0
    outer loop
      vertex 0 74.2244 29.7024
      vertex 0 25 5
      vertex 0 76.4771 31.7307
    endloop
  endfacet
  facet normal -1 0 0
    outer loop
      vertex 0 25 5
      vertex 0 70.5794 21.5157
      vertex 0 70.5794 18.4843
    endloop
  endfacet
  facet normal -1 0 0
    outer loop
      vertex 0 25 5
      vertex 0 70.5794 18.4843
      vertex 0 71.2097 15.5193
    endloop
  endfacet
  facet normal -1 0 0
    outer loop
      vertex 0 25 5
      vertex 0 71.2097 15.5193
      vertex 0 72.4426 12.75
    endloop
  endfacet
  facet normal -1 0 0
    outer loop
      vertex 0 25 5
      vertex 0 72.4426 12.75
      vertex 0 74.2244 10.2976
    endloop
  endfacet
  facet normal -1 0 0
    outer loop
      vertex 0 73.8817 9.21352
      vertex 0 74.2244 10.2976
      vertex 0 76.4771 8.26925
    endloop
  endfacet
  facet normal -1 0 0
    outer loop
      vertex 0 74.4266 7.53647
      vertex 0 76.4771 8.26925
      vertex 0 79.1023 6.75359
    endloop
  endfacet
  facet normal -1 0 0
    outer loop
      vertex 0 73 6.5
      vertex 0 79.1023 6.75359
      vertex 0 81.9853 5.81686
    endloop
  endfacet
  facet normal -1 0 0
    outer loop
      vertex 0 25 5
      vertex 0 81.9853 5.81686
      vertex 0 85 5.5
    endloop
  endfacet
  facet normal -1 0 0
    outer loop
      vertex 0 25 5
      vertex 0 85 5.5
      vertex 0 95 5
    endloop
  endfacet
  facet normal -1 0 0
    outer loop
      vertex 0 90.8977 6.75359
      vertex 0 95 5
      vertex 0 88.0147 5.81686
    endloop
  endfacet
  facet normal -1 0 0
    outer loop
      vertex 0 93.5229 8.26925
      vertex 0 95 5
      vertex 0 90.8977 6.75359
    endloop
  endfacet
  facet normal -1 0 0
    outer loop
      vertex 0 88.0147 34.1831
      vertex 0 110 50
      vertex 0 90.8977 33.2464
    endloop
  endfacet
  facet normal -1 0 0
    outer loop
      vertex 0 98.7903 24.4807
      vertex 0 110 50
      vertex 0 99.4206 21.5157
    endloop
  endfacet
  facet normal -1 0 0
    outer loop
      vertex 0 93.5229 8.26925
      vertex 0 95.7756 10.2976
      vertex 0 95 5
    endloop
  endfacet
  facet normal -1 0 0
    outer loop
      vertex 0 99.4206 21.5157
      vertex 0 110 50
      vertex 0 99.4206 18.4843
    endloop
  endfacet
  facet normal -1 0 0
    outer loop
      vertex 0 97 6.5
      vertex 0 95 5
      vertex 0 95.5734 7.53647
    endloop
  endfacet
  facet normal -1 0 0
    outer loop
      vertex 0 99.4206 18.4843
      vertex 0 110 50
      vertex 0 98.7903 15.5193
    endloop
  endfacet
  facet normal -1 0 0
    outer loop
      vertex 0 98.4266 7.53647
      vertex 0 98.7903 15.5193
      vertex 0 110 5
    endloop
  endfacet
  facet normal -1 0 0
    outer loop
      vertex 0 97.5574 27.25
      vertex 0 110 50
      vertex 0 98.7903 24.4807
    endloop
  endfacet
  facet normal -1 0 0
    outer loop
      vertex 0 98.4266 31.5365
      vertex 0 110 50
      vertex 0 97.5574 27.25
    endloop
  endfacet
  facet normal -1 0 0
    outer loop
      vertex 0 90.8977 33.2464
      vertex 0 110 50
      vertex 0 93.5229 31.7307
    endloop
  endfacet
  facet normal -1 0 0
    outer loop
      vertex 0 85 34.5
      vertex 0 110 50
      vertex 0 88.0147 34.1831
    endloop
  endfacet
  facet normal -1 0 0
    outer loop
      vertex 0 81.9853 34.1831
      vertex 0 110 50
      vertex 0 85 34.5
    endloop
  endfacet
  facet normal -1 0 0
    outer loop
      vertex 0 79.1023 33.2464
      vertex 0 110 50
      vertex 0 81.9853 34.1831
    endloop
  endfacet
  facet normal -1 0 0
    outer loop
      vertex 0 25 5
      vertex 0 110 50
      vertex 0 79.1023 33.2464
    endloop
  endfacet
  facet normal -1 0 0
    outer loop
      vertex 0 25 5
      vertex 0 79.1023 33.2464
      vertex 0 76.4771 31.7307
    endloop
  endfacet
  facet normal -1 0 0
    outer loop
      vertex 0 72.4426 27.25
      vertex 0 25 5
      vertex 0 74.2244 29.7024
    endloop
  endfacet
  facet normal -1 0 0
    outer loop
      vertex 0 71.2097 24.4807
      vertex 0 25 5
      vertex 0 72.4426 27.25
    endloop
  endfacet
  facet normal -1 0 0
    outer loop
      vertex 0 71.5734 7.53647
      vertex 0 25 5
      vertex 0 72.1183 9.21352
    endloop
  endfacet
  facet normal -1 0 0
    outer loop
      vertex 0 25 5
      vertex 0 71.2097 24.4807
      vertex 0 70.5794 21.5157
    endloop
  endfacet
  facet normal -1 0 0
    outer loop
      vertex 0 25 5
      vertex 0 74.2244 10.2976
      vertex 0 72.1183 9.21352
    endloop
  endfacet
  facet normal -1 0 0
    outer loop
      vertex 0 73 6.5
      vertex 0 25 5
      vertex 0 71.5734 7.53647
    endloop
  endfacet
  facet normal -1 0 0
    outer loop
      vertex 0 74.4266 7.53647
      vertex 0 79.1023 6.75359
      vertex 0 73 6.5
    endloop
  endfacet
  facet normal -1 0 0
    outer loop
      vertex 0 25 5
      vertex 0 73 6.5
      vertex 0 81.9853 5.81686
    endloop
  endfacet
  facet normal -1 0 0
    outer loop
      vertex 0 97 30.5
      vertex 0 95.7756 29.7024
      vertex 0 95.5734 31.5365
    endloop
  endfacet
  facet normal -1 0 0
    outer loop
      vertex 0 73.8817 9.21352
      vertex 0 76.4771 8.26925
      vertex 0 74.4266 7.53647
    endloop
  endfacet
  facet normal -1 0 0
    outer loop
      vertex 0 72.1183 9.21352
      vertex 0 74.2244 10.2976
      vertex 0 73.8817 9.21352
    endloop
  endfacet
  facet normal -1 0 0
    outer loop
      vertex 0 72.1183 33.2135
      vertex 0 110 50
      vertex 0 73.8817 33.2135
    endloop
  endfacet
  facet normal -1 0 0
    outer loop
      vertex 0 10 5
      vertex 0 0 50
      vertex 0 72.1183 33.2135
    endloop
  endfacet
  facet normal -1 0 0
    outer loop
      vertex 0 71.5734 31.5365
      vertex 0 10 5
      vertex 0 72.1183 33.2135
    endloop
  endfacet
  facet normal -1 0 0
    outer loop
      vertex 0 88.0147 5.81686
      vertex 0 95 5
      vertex 0 85 5.5
    endloop
  endfacet
  facet normal -1 0 0
    outer loop
      vertex 0 74.4266 31.5365
      vertex 0 110 50
      vertex 0 73 30.5
    endloop
  endfacet
  facet normal -1 0 0
    outer loop
      vertex 0 73 30.5
      vertex 0 10 5
      vertex 0 71.5734 31.5365
    endloop
  endfacet
  facet normal -1 0 0
    outer loop
      vertex 0 96.1183 9.21352
      vertex 0 97.5574 12.75
      vertex 0 98.7903 15.5193
    endloop
  endfacet
  facet normal -1 0 0
    outer loop
      vertex 0 95.7756 10.2976
      vertex 0 97.5574 12.75
      vertex 0 96.1183 9.21352
    endloop
  endfacet
  facet normal -1 0 0
    outer loop
      vertex 0 95.7756 10.2976
      vertex 0 96.1183 9.21352
      vertex 0 95.5734 7.53647
    endloop
  endfacet
  facet normal -1 0 0
    outer loop
      vertex 0 95.7756 10.2976
      vertex 0 95.5734 7.53647
      vertex 0 95 5
    endloop
  endfacet
  facet normal -1 0 0
    outer loop
      vertex 0 95 5
      vertex 0 97 6.5
      vertex 0 110 5
    endloop
  endfacet
  facet normal -1 0 0
    outer loop
      vertex 0 97.8817 9.21352
      vertex 0 98.7903 15.5193
      vertex 0 98.4266 7.53647
    endloop
  endfacet
  facet normal -1 0 0
    outer loop
      vertex 0 97 6.5
      vertex 0 98.4266 7.53647
      vertex 0 110 5
    endloop
  endfacet
  facet normal -1 0 0
    outer loop
      vertex 0 93.5229 31.7307
      vertex 0 110 50
      vertex 0 96.1183 33.2135
    endloop
  endfacet
  facet normal -1 0 0
    outer loop
      vertex 0 93.5229 31.7307
      vertex 0 96.1183 33.2135
      vertex 0 95.5734 31.5365
    endloop
  endfacet
  facet normal -1 0 0
    outer loop
      vertex 0 93.5229 31.7307
      vertex 0 95.5734 31.5365
      vertex 0 95.7756 29.7024
    endloop
  endfacet
  facet normal -1 0 0
    outer loop
      vertex 0 97.8817 33.2135
      vertex 0 110 50
      vertex 0 98.4266 31.5365
    endloop
  endfacet
  facet normal -1 0 0
    outer loop
      vertex 0 95.7756 29.7024
      vertex 0 97 30.5
      vertex 0 97.5574 27.25
    endloop
  endfacet
  facet normal -1 0 0
    outer loop
      vertex 0 97 30.5
      vertex 0 98.4266 31.5365
      vertex 0 97.5574 27.25
    endloop
  endfacet
  facet normal -1 0 0
    outer loop
      vertex 0 96.1183 33.2135
      vertex 0 110 50
      vertex 0 97.8817 33.2135
    endloop
  endfacet
  facet normal -1 0 0
    outer loop
      vertex 0 95 0
      vertex 0 25 0
      vertex 0 95 5
    endloop
  endfacet
  facet normal -1 0 0
    outer loop
      vertex 0 10 5
      vertex 0 73 30.5
      vertex 0 25 5
    endloop
  endfacet
  facet normal 0 -1 0
    outer loop
      vertex 120 0 3
      vertex 0 0 0
      vertex 130 0 0
    endloop
  endfacet
  facet normal 0 -1 0
    outer loop
      vertex 25 0 3
      vertex 25 0 50
      vertex 0 0 50
    endloop
  endfacet
  facet normal 0 -1 0
    outer loop
      vertex 130 0 50
      vertex 120 0 50
      vertex 130 0 0
    endloop
  endfacet
  facet normal 0 -1 0
    outer loop
      vertex 25 0 3
      vertex 0 0 0
      vertex 120 0 3
    endloop
  endfacet
  facet normal 0 -1 0
    outer loop
      vertex 0 0 50
      vertex 0 0 0
      vertex 25 0 3
    endloop
  endfacet
  facet normal 0 -1 0
    outer loop
      vertex 120 0 50
      vertex 120 0 3
      vertex 130 0 0
    endloop
  endfacet
  facet normal 1 0 0
    outer loop
      vertex 130 0 50
      vertex 130 0 0
      vertex 130 10 0
    endloop
  endfacet
  facet normal 1 0 0
    outer loop
      vertex 130 25 5
      vertex 130 0 50
      vertex 130 10 5
    endloop
  endfacet
  facet normal 1 0 0
    outer loop
      vertex 130 10 5
      vertex 130 0 50
      vertex 130 10 0
    endloop
  endfacet
  facet normal 1 0 0
    outer loop
      vertex 130 95 0
      vertex 130 0 50
      vertex 130 25 5
    endloop
  endfacet
  facet normal 1 0 0
    outer loop
      vertex 130 95 0
      vertex 130 25 5
      vertex 130 25 0
    endloop
  endfacet
  facet normal 1 0 0
    outer loop
      vertex 130 95 5
      vertex 130 0 50
      vertex 130 95 0
    endloop
  endfacet
  facet normal 1 0 0
    outer loop
      vertex 130 110 5
      vertex 130 0 50
      vertex 130 95 5
    endloop
  endfacet
  facet normal 1 0 0
    outer loop
      vertex 130 110 50
      vertex 130 0 50
      vertex 130 110 5
    endloop
  endfacet
  facet normal 0 -1 0
    outer loop
      vertex 130 10 5
      vertex 130 10 0
      vertex 145 10 0
    endloop
  endfacet
  facet normal 0 -1 0
    outer loop
      vertex 145 10 5
      vertex 130 10 5
      vertex 145 10 0
    endloop
  endfacet
  facet normal 1 0 0
    outer loop
      vertex 145 10 5
      vertex 145 10 0
      vertex 145 25 0
    endloop
  endfacet
  facet normal 1 0 0
    outer loop
      vertex 145 25 5
      vertex 145 10 5
      vertex 145 25 0
    endloop
  endfacet
  facet normal 0 1 0
    outer loop
      vertex 130 25 0
      vertex 130 25 5
      vertex 145 25 0
    endloop
  endfacet
  facet normal 0 1 0
    outer loop
      vertex 145 25 0
      vertex 130 25 5
      vertex 145 25 5
    endloop
  endfacet
  facet normal 0 -1 0
    outer loop
      vertex 130 95 5
      vertex 130 95 0
      vertex 145 95 0
    endloop
  endfacet
  facet normal 0 -1 0
    outer loop
      vertex 145 95 5
      vertex 130 95 5
      vertex 145 95 0
    endloop
  endfacet
  facet normal 1 0 0
    outer loop
      vertex 145 95 5
      vertex 145 95 0
      vertex 145 110 0
    endloop
  endfacet
  facet normal 1 0 0
    outer loop
      vertex 145 110 5
      vertex 145 95 5
      vertex 145 110 0
    endloop
  endfacet
  facet normal 0 1 0
    outer loop
      vertex -15 110 0
      vertex -15 110 5
      vertex 145 110 0
    endloop
  endfacet
  facet normal 0 1 0
    outer loop
      vertex 145 110 0
      vertex -15 110 5
      vertex 0 110 5
    endloop
  endfacet
  facet normal 0 1 0
    outer loop
      vertex 5 110 38
      vertex 0 110 5
      vertex 0 110 50
    endloop
  endfacet
  facet normal 0 1 0
    outer loop
      vertex 90 110 3
      vertex 0 110 5
      vertex 5 110 38
    endloop
  endfacet
  facet normal 0 1 0
    outer loop
      vertex 90 110 3
      vertex 5 110 38
      vertex 90 110 38
    endloop
  endfacet
  facet normal 0 1 0
    outer loop
      vertex 145 110 0
      vertex 0 110 5
      vertex 90 110 3
    endloop
  endfacet
  facet normal 0 1 0
    outer loop
      vertex 145 110 5
      vertex 145 110 0
      vertex 130 110 5
    endloop
  endfacet
  facet normal 0 1 0
    outer loop
      vertex 145 110 0
      vertex 90 110 3
      vertex 126 110 3
    endloop
  endfacet
  facet normal 0 1 0
    outer loop
      vertex 126 110 50
      vertex 130 110 5
      vertex 126 110 3
    endloop
  endfacet
  facet normal 0 1 0
    outer loop
      vertex 130 110 5
      vertex 126 110 50
      vertex 130 110 50
    endloop
  endfacet
  facet normal 0 1 0
    outer loop
      vertex 5 110 38
      vertex 0 110 50
      vertex 5 110 50
    endloop
  endfacet
  facet normal 0 1 0
    outer loop
      vertex 130 110 5
      vertex 145 110 0
      vertex 126 110 3
    endloop
  endfacet
  facet normal -1 0 0
    outer loop
      vertex -15 95 0
      vertex -15 95 5
      vertex -15 110 0
    endloop
  endfacet
  facet normal -1 0 0
    outer loop
      vertex -15 110 0
      vertex -15 95 5
      vertex -15 110 5
    endloop
  endfacet
  facet normal 0 -1 0
    outer loop
      vertex -15 95 5
      vertex -15 95 0
      vertex 0 95 0
    endloop
  endfacet
  facet normal 0 -1 0
    outer loop
      vertex 0 95 5
      vertex -15 95 5
      vertex 0 95 0
    endloop
  endfacet
  facet normal 0.866025 -0.5 0
    outer loop
      vertex -8.3 18.8856 0
      vertex -8.3 18.8856 5
      vertex -9.1 17.5 5
    endloop
  endfacet
  facet normal 0.866025 -0.5 0
    outer loop
      vertex -9.1 17.5 0
      vertex -8.3 18.8856 0
      vertex -9.1 17.5 5
    endloop
  endfacet
  facet normal 0.866025 0.5 0
    outer loop
      vertex -9.1 17.5 5
      vertex -8.3 16.1144 5
      vertex -8.3 16.1144 0
    endloop
  endfacet
  facet normal 0.866025 0.5 0
    outer loop
      vertex -9.1 17.5 0
      vertex -9.1 17.5 5
      vertex -8.3 16.1144 0
    endloop
  endfacet
  facet normal 0 -1 0
    outer loop
      vertex -6.7 18.8856 0
      vertex -6.7 18.8856 5
      vertex -8.3 18.8856 5
    endloop
  endfacet
  facet normal 0 -1 0
    outer loop
      vertex -8.3 18.8856 0
      vertex -6.7 18.8856 0
      vertex -8.3 18.8856 5
    endloop
  endfacet
  facet normal -0.866025 -0.5 0
    outer loop
      vertex -5.9 17.5 5
      vertex -6.7 18.8856 5
      vertex -5.9 17.5 0
    endloop
  endfacet
  facet normal -0.866025 -0.5 0
    outer loop
      vertex -5.9 17.5 0
      vertex -6.7 18.8856 5
      vertex -6.7 18.8856 0
    endloop
  endfacet
  facet normal -0.866025 0.5 0
    outer loop
      vertex -5.9 17.5 5
      vertex -5.9 17.5 0
      vertex -6.7 16.1144 5
    endloop
  endfacet
  facet normal -0.866025 0.5 0
    outer loop
      vertex -6.7 16.1144 5
      vertex -5.9 17.5 0
      vertex -6.7 16.1144 0
    endloop
  endfacet
  facet normal 0 1 0
    outer loop
      vertex -6.7 16.1144 5
      vertex -6.7 16.1144 0
      vertex -8.3 16.1144 5
    endloop
  endfacet
  facet normal 0 1 0
    outer loop
      vertex -8.3 16.1144 5
      vertex -6.7 16.1144 0
      vertex -8.3 16.1144 0
    endloop
  endfacet
  facet normal 0.866025 0.5 0
    outer loop
      vertex -9.1 102.5 5
      vertex -8.3 101.114 5
      vertex -8.3 101.114 0
    endloop
  endfacet
  facet normal 0.866025 0.5 0
    outer loop
      vertex -9.1 102.5 0
      vertex -9.1 102.5 5
      vertex -8.3 101.114 0
    endloop
  endfacet
  facet normal 0.866025 -0.5 0
    outer loop
      vertex -8.3 103.886 0
      vertex -8.3 103.886 5
      vertex -9.1 102.5 5
    endloop
  endfacet
  facet normal 0.866025 -0.5 0
    outer loop
      vertex -9.1 102.5 0
      vertex -8.3 103.886 0
      vertex -9.1 102.5 5
    endloop
  endfacet
  facet normal 0 -1 0
    outer loop
      vertex -6.7 103.886 0
      vertex -6.7 103.886 5
      vertex -8.3 103.886 5
    endloop
  endfacet
  facet normal 0 -1 0
    outer loop
      vertex -8.3 103.886 0
      vertex -6.7 103.886 0
      vertex -8.3 103.886 5
    endloop
  endfacet
  facet normal -0.866025 -0.5 0
    outer loop
      vertex -5.9 102.5 5
      vertex -6.7 103.886 5
      vertex -5.9 102.5 0
    endloop
  endfacet
  facet normal -0.866025 -0.5 0
    outer loop
      vertex -5.9 102.5 0
      vertex -6.7 103.886 5
      vertex -6.7 103.886 0
    endloop
  endfacet
  facet normal -0.866025 0.5 0
    outer loop
      vertex -5.9 102.5 5
      vertex -5.9 102.5 0
      vertex -6.7 101.114 5
    endloop
  endfacet
  facet normal -0.866025 0.5 0
    outer loop
      vertex -6.7 101.114 5
      vertex -5.9 102.5 0
      vertex -6.7 101.114 0
    endloop
  endfacet
  facet normal 0 1 0
    outer loop
      vertex -6.7 101.114 5
      vertex -6.7 101.114 0
      vertex -8.3 101.114 5
    endloop
  endfacet
  facet normal 0 1 0
    outer loop
      vertex -8.3 101.114 5
      vertex -6.7 101.114 0
      vertex -8.3 101.114 0
    endloop
  endfacet
  facet normal 0.866025 0.5 0
    outer loop
      vertex 7.4 27 3
      vertex 8.2 25.6144 3
      vertex 8.2 25.6144 0
    endloop
  endfacet
  facet normal 0.866025 0.5 0
    outer loop
      vertex 7.4 27 0
      vertex 7.4 27 3
      vertex 8.2 25.6144 0
    endloop
  endfacet
  facet normal 0.866025 -0.5 0
    outer loop
      vertex 8.2 28.3856 0
      vertex 8.2 28.3856 3
      vertex 7.4 27 3
    endloop
  endfacet
  facet normal 0.866025 -0.5 0
    outer loop
      vertex 7.4 27 0
      vertex 8.2 28.3856 0
      vertex 7.4 27 3
    endloop
  endfacet
  facet normal 0 -1 0
    outer loop
      vertex 9.8 28.3856 0
      vertex 9.8 28.3856 3
      vertex 8.2 28.3856 3
    endloop
  endfacet
  facet normal 0 -1 0
    outer loop
      vertex 8.2 28.3856 0
      vertex 9.8 28.3856 0
      vertex 8.2 28.3856 3
    endloop
  endfacet
  facet normal -0.866025 -0.5 0
    outer loop
      vertex 10.6 27 3
      vertex 9.8 28.3856 3
      vertex 10.6 27 0
    endloop
  endfacet
  facet normal -0.866025 -0.5 0
    outer loop
      vertex 10.6 27 0
      vertex 9.8 28.3856 3
      vertex 9.8 28.3856 0
    endloop
  endfacet
  facet normal -0.866025 0.5 0
    outer loop
      vertex 10.6 27 3
      vertex 10.6 27 0
      vertex 9.8 25.6144 3
    endloop
  endfacet
  facet normal -0.866025 0.5 0
    outer loop
      vertex 9.8 25.6144 3
      vertex 10.6 27 0
      vertex 9.8 25.6144 0
    endloop
  endfacet
  facet normal 0 1 0
    outer loop
      vertex 9.8 25.6144 3
      vertex 9.8 25.6144 0
      vertex 8.2 25.6144 3
    endloop
  endfacet
  facet normal 0 1 0
    outer loop
      vertex 8.2 25.6144 3
      vertex 9.8 25.6144 0
      vertex 8.2 25.6144 0
    endloop
  endfacet
  facet normal 0.866025 0.5 0
    outer loop
      vertex 7.4 98 3
      vertex 8.2 96.6144 3
      vertex 8.2 96.6144 0
    endloop
  endfacet
  facet normal 0.866025 0.5 0
    outer loop
      vertex 7.4 98 0
      vertex 7.4 98 3
      vertex 8.2 96.6144 0
    endloop
  endfacet
  facet normal 0.866025 -0.5 0
    outer loop
      vertex 8.2 99.3856 0
      vertex 8.2 99.3856 3
      vertex 7.4 98 3
    endloop
  endfacet
  facet normal 0.866025 -0.5 0
    outer loop
      vertex 7.4 98 0
      vertex 8.2 99.3856 0
      vertex 7.4 98 3
    endloop
  endfacet
  facet normal 0 -1 0
    outer loop
      vertex 9.8 99.3856 0
      vertex 9.8 99.3856 3
      vertex 8.2 99.3856 3
    endloop
  endfacet
  facet normal 0 -1 0
    outer loop
      vertex 8.2 99.3856 0
      vertex 9.8 99.3856 0
      vertex 8.2 99.3856 3
    endloop
  endfacet
  facet normal -0.866025 -0.5 0
    outer loop
      vertex 10.6 98 3
      vertex 9.8 99.3856 3
      vertex 10.6 98 0
    endloop
  endfacet
  facet normal -0.866025 -0.5 0
    outer loop
      vertex 10.6 98 0
      vertex 9.8 99.3856 3
      vertex 9.8 99.3856 0
    endloop
  endfacet
  facet normal -0.866025 0.5 0
    outer loop
      vertex 10.6 98 3
      vertex 10.6 98 0
      vertex 9.8 96.6144 3
    endloop
  endfacet
  facet normal -0.866025 0.5 0
    outer loop
      vertex 9.8 96.6144 3
      vertex 10.6 98 0
      vertex 9.8 96.6144 0
    endloop
  endfacet
  facet normal 0 1 0
    outer loop
      vertex 9.8 96.6144 3
      vertex 9.8 96.6144 0
      vertex 8.2 96.6144 3
    endloop
  endfacet
  facet normal 0 1 0
    outer loop
      vertex 8.2 96.6144 3
      vertex 9.8 96.6144 0
      vertex 8.2 96.6144 0
    endloop
  endfacet
  facet normal 0.866025 0.5 0
    outer loop
      vertex 76.4 98 3
      vertex 77.2 96.6144 3
      vertex 77.2 96.6144 0
    endloop
  endfacet
  facet normal 0.866025 0.5 0
    outer loop
      vertex 76.4 98 0
      vertex 76.4 98 3
      vertex 77.2 96.6144 0
    endloop
  endfacet
  facet normal 0.866025 -0.5 0
    outer loop
      vertex 77.2 99.3856 0
      vertex 77.2 99.3856 3
      vertex 76.4 98 3
    endloop
  endfacet
  facet normal 0.866025 -0.5 0
    outer loop
      vertex 76.4 98 0
      vertex 77.2 99.3856 0
      vertex 76.4 98 3
    endloop
  endfacet
  facet normal 0 -1 0
    outer loop
      vertex 78.8 99.3856 0
      vertex 78.8 99.3856 3
      vertex 77.2 99.3856 3
    endloop
  endfacet
  facet normal 0 -1 0
    outer loop
      vertex 77.2 99.3856 0
      vertex 78.8 99.3856 0
      vertex 77.2 99.3856 3
    endloop
  endfacet
  facet normal -0.866025 -0.5 0
    outer loop
      vertex 79.6 98 3
      vertex 78.8 99.3856 3
      vertex 79.6 98 0
    endloop
  endfacet
  facet normal -0.866025 -0.5 0
    outer loop
      vertex 79.6 98 0
      vertex 78.8 99.3856 3
      vertex 78.8 99.3856 0
    endloop
  endfacet
  facet normal -0.866025 0.5 0
    outer loop
      vertex 79.6 98 3
      vertex 79.6 98 0
      vertex 78.8 96.6144 3
    endloop
  endfacet
  facet normal -0.866025 0.5 0
    outer loop
      vertex 78.8 96.6144 3
      vertex 79.6 98 0
      vertex 78.8 96.6144 0
    endloop
  endfacet
  facet normal 0 1 0
    outer loop
      vertex 78.8 96.6144 3
      vertex 78.8 96.6144 0
      vertex 77.2 96.6144 3
    endloop
  endfacet
  facet normal 0 1 0
    outer loop
      vertex 77.2 96.6144 3
      vertex 78.8 96.6144 0
      vertex 77.2 96.6144 0
    endloop
  endfacet
  facet normal 0.866025 -0.5 0
    outer loop
      vertex 136.7 18.8856 0
      vertex 136.7 18.8856 5
      vertex 135.9 17.5 5
    endloop
  endfacet
  facet normal 0.866025 -0.5 0
    outer loop
      vertex 135.9 17.5 0
      vertex 136.7 18.8856 0
      vertex 135.9 17.5 5
    endloop
  endfacet
  facet normal 0.866025 0.5 0
    outer loop
      vertex 135.9 17.5 5
      vertex 136.7 16.1144 5
      vertex 136.7 16.1144 0
    endloop
  endfacet
  facet normal 0.866025 0.5 0
    outer loop
      vertex 135.9 17.5 0
      vertex 135.9 17.5 5
      vertex 136.7 16.1144 0
    endloop
  endfacet
  facet normal 0 -1 0
    outer loop
      vertex 138.3 18.8856 0
      vertex 138.3 18.8856 5
      vertex 136.7 18.8856 5
    endloop
  endfacet
  facet normal 0 -1 0
    outer loop
      vertex 136.7 18.8856 0
      vertex 138.3 18.8856 0
      vertex 136.7 18.8856 5
    endloop
  endfacet
  facet normal -0.866025 -0.5 0
    outer loop
      vertex 139.1 17.5 5
      vertex 138.3 18.8856 5
      vertex 139.1 17.5 0
    endloop
  endfacet
  facet normal -0.866025 -0.5 0
    outer loop
      vertex 139.1 17.5 0
      vertex 138.3 18.8856 5
      vertex 138.3 18.8856 0
    endloop
  endfacet
  facet normal -0.866025 0.5 0
    outer loop
      vertex 139.1 17.5 5
      vertex 139.1 17.5 0
      vertex 138.3 16.1144 5
    endloop
  endfacet
  facet normal -0.866025 0.5 0
    outer loop
      vertex 138.3 16.1144 5
      vertex 139.1 17.5 0
      vertex 138.3 16.1144 0
    endloop
  endfacet
  facet normal 0 1 0
    outer loop
      vertex 138.3 16.1144 5
      vertex 138.3 16.1144 0
      vertex 136.7 16.1144 5
    endloop
  endfacet
  facet normal 0 1 0
    outer loop
      vertex 136.7 16.1144 5
      vertex 138.3 16.1144 0
      vertex 136.7 16.1144 0
    endloop
  endfacet
  facet normal 0.866025 0.5 0
    outer loop
      vertex 135.9 102.5 5
      vertex 136.7 101.114 5
      vertex 136.7 101.114 0
    endloop
  endfacet
  facet normal 0.866025 0.5 0
    outer loop
      vertex 135.9 102.5 0
      vertex 135.9 102.5 5
      vertex 136.7 101.114 0
    endloop
  endfacet
  facet normal 0.866025 -0.5 0
    outer loop
      vertex 136.7 103.886 0
      vertex 136.7 103.886 5
      vertex 135.9 102.5 5
    endloop
  endfacet
  facet normal 0.866025 -0.5 0
    outer loop
      vertex 135.9 102.5 0
      vertex 136.7 103.886 0
      vertex 135.9 102.5 5
    endloop
  endfacet
  facet normal 0 -1 0
    outer loop
      vertex 138.3 103.886 0
      vertex 138.3 103.886 5
      vertex 136.7 103.886 5
    endloop
  endfacet
  facet normal 0 -1 0
    outer loop
      vertex 136.7 103.886 0
      vertex 138.3 103.886 0
      vertex 136.7 103.886 5
    endloop
  endfacet
  facet normal -0.866025 -0.5 0
    outer loop
      vertex 139.1 102.5 5
      vertex 138.3 103.886 5
      vertex 139.1 102.5 0
    endloop
  endfacet
  facet normal -0.866025 -0.5 0
    outer loop
      vertex 139.1 102.5 0
      vertex 138.3 103.886 5
      vertex 138.3 103.886 0
    endloop
  endfacet
  facet normal -0.866025 0.5 0
    outer loop
      vertex 139.1 102.5 5
      vertex 139.1 102.5 0
      vertex 138.3 101.114 5
    endloop
  endfacet
  facet normal -0.866025 0.5 0
    outer loop
      vertex 138.3 101.114 5
      vertex 139.1 102.5 0
      vertex 138.3 101.114 0
    endloop
  endfacet
  facet normal 0 1 0
    outer loop
      vertex 138.3 101.114 5
      vertex 138.3 101.114 0
      vertex 136.7 101.114 5
    endloop
  endfacet
  facet normal 0 1 0
    outer loop
      vertex 136.7 101.114 5
      vertex 138.3 101.114 0
      vertex 136.7 101.114 0
    endloop
  endfacet
  facet normal 0 0 1
    outer loop
      vertex -8.3 101.114 5
      vertex -15 95 5
      vertex 0 95 5
    endloop
  endfacet
  facet normal 0 0 1
    outer loop
      vertex -15 110 5
      vertex -15 95 5
      vertex -8.3 101.114 5
    endloop
  endfacet
  facet normal 0 0 1
    outer loop
      vertex -15 110 5
      vertex -8.3 101.114 5
      vertex -9.1 102.5 5
    endloop
  endfacet
  facet normal 0 0 1
    outer loop
      vertex 0 110 5
      vertex -15 110 5
      vertex -8.3 103.886 5
    endloop
  endfacet
  facet normal 0 0 1
    outer loop
      vertex 0 110 5
      vertex -6.7 103.886 5
      vertex 0 95 5
    endloop
  endfacet
  facet normal 0 0 1
    outer loop
      vertex 0 110 5
      vertex -8.3 103.886 5
      vertex -6.7 103.886 5
    endloop
  endfacet
  facet normal 0 0 1
    outer loop
      vertex -6.7 103.886 5
      vertex -5.9 102.5 5
      vertex 0 95 5
    endloop
  endfacet
  facet normal 0 0 1
    outer loop
      vertex -5.9 102.5 5
      vertex -6.7 101.114 5
      vertex 0 95 5
    endloop
  endfacet
  facet normal 0 0 1
    outer loop
      vertex -6.7 101.114 5
      vertex -8.3 101.114 5
      vertex 0 95 5
    endloop
  endfacet
  facet normal 0 0 1
    outer loop
      vertex -9.1 102.5 5
      vertex -8.3 103.886 5
      vertex -15 110 5
    endloop
  endfacet
  facet normal 0 0 1
    outer loop
      vertex 3.5 5 50
      vertex 0 0 50
      vertex 25 0 50
    endloop
  endfacet
  facet normal 0 0 1
    outer loop
      vertex 3.5 5 50
      vertex 3.5 104 50
      vertex 0 110 50
    endloop
  endfacet
  facet normal 0 0 1
    outer loop
      vertex 0 110 50
      vertex 0 0 50
      vertex 3.5 5 50
    endloop
  endfacet
  facet normal 0 0 1
    outer loop
      vertex 5 104 50
      vertex 0 110 50
      vertex 3.5 104 50
    endloop
  endfacet
  facet normal 0 0 1
    outer loop
      vertex 5 110 50
      vertex 0 110 50
      vertex 5 104 50
    endloop
  endfacet
  facet normal 0 0 1
    outer loop
      vertex 25 5 50
      vertex 3.5 5 50
      vertex 25 0 50
    endloop
  endfacet
  facet normal 4.61657e-017 0.978148 -0.207912
    outer loop
      vertex 3.5 71.2097 24.4807
      vertex 3.5 70.5794 21.5157
      vertex 0 71.2097 24.4807
    endloop
  endfacet
  facet normal 4.61657e-017 0.978148 -0.207912
    outer loop
      vertex 0 71.2097 24.4807
      vertex 3.5 70.5794 21.5157
      vertex 0 70.5794 21.5157
    endloop
  endfacet
  facet normal 0 1 0
    outer loop
      vertex 3.5 70.5794 21.5157
      vertex 3.5 70.5794 18.4843
      vertex 0 70.5794 21.5157
    endloop
  endfacet
  facet normal 0 1 0
    outer loop
      vertex 0 70.5794 21.5157
      vertex 3.5 70.5794 18.4843
      vertex 0 70.5794 18.4843
    endloop
  endfacet
  facet normal 9.03137e-017 0.913545 -0.406737
    outer loop
      vertex 3.5 72.4426 27.25
      vertex 3.5 71.2097 24.4807
      vertex 0 72.4426 27.25
    endloop
  endfacet
  facet normal 9.03137e-017 0.913545 -0.406737
    outer loop
      vertex 0 72.4426 27.25
      vertex 3.5 71.2097 24.4807
      vertex 0 71.2097 24.4807
    endloop
  endfacet
  facet normal 1.30515e-016 0.809017 -0.587785
    outer loop
      vertex 3.5 74.2244 29.7024
      vertex 3.5 72.4426 27.25
      vertex 0 74.2244 29.7024
    endloop
  endfacet
  facet normal 1.30515e-016 0.809017 -0.587785
    outer loop
      vertex 0 74.2244 29.7024
      vertex 3.5 72.4426 27.25
      vertex 0 72.4426 27.25
    endloop
  endfacet
  facet normal 1.65011e-016 0.66913 -0.743145
    outer loop
      vertex 3.5 76.4771 31.7307
      vertex 3.5 74.2244 29.7024
      vertex 0 76.4771 31.7307
    endloop
  endfacet
  facet normal 1.65011e-016 0.66913 -0.743145
    outer loop
      vertex 0 76.4771 31.7307
      vertex 3.5 74.2244 29.7024
      vertex 0 74.2244 29.7024
    endloop
  endfacet
  facet normal 1.92296e-016 0.5 -0.866025
    outer loop
      vertex 3.5 79.1023 33.2464
      vertex 3.5 76.4771 31.7307
      vertex 0 79.1023 33.2464
    endloop
  endfacet
  facet normal 1.92296e-016 0.5 -0.866025
    outer loop
      vertex 0 79.1023 33.2464
      vertex 3.5 76.4771 31.7307
      vertex 0 76.4771 31.7307
    endloop
  endfacet
  facet normal 2.11177e-016 0.309017 -0.951056
    outer loop
      vertex 3.5 81.9853 34.1831
      vertex 3.5 79.1023 33.2464
      vertex 0 81.9853 34.1831
    endloop
  endfacet
  facet normal 2.11177e-016 0.309017 -0.951056
    outer loop
      vertex 0 81.9853 34.1831
      vertex 3.5 79.1023 33.2464
      vertex 0 79.1023 33.2464
    endloop
  endfacet
  facet normal 2.20828e-016 0.104529 -0.994522
    outer loop
      vertex 3.5 85 34.5
      vertex 3.5 81.9853 34.1831
      vertex 0 85 34.5
    endloop
  endfacet
  facet normal 2.20828e-016 0.104529 -0.994522
    outer loop
      vertex 0 85 34.5
      vertex 3.5 81.9853 34.1831
      vertex 0 81.9853 34.1831
    endloop
  endfacet
  facet normal 2.20828e-016 -0.104529 -0.994522
    outer loop
      vertex 3.5 88.0147 34.1831
      vertex 3.5 85 34.5
      vertex 0 88.0147 34.1831
    endloop
  endfacet
  facet normal 2.20828e-016 -0.104529 -0.994522
    outer loop
      vertex 0 88.0147 34.1831
      vertex 3.5 85 34.5
      vertex 0 85 34.5
    endloop
  endfacet
  facet normal 2.11177e-016 -0.309017 -0.951056
    outer loop
      vertex 3.5 90.8977 33.2464
      vertex 3.5 88.0147 34.1831
      vertex 0 90.8977 33.2464
    endloop
  endfacet
  facet normal 2.11177e-016 -0.309017 -0.951056
    outer loop
      vertex 0 90.8977 33.2464
      vertex 3.5 88.0147 34.1831
      vertex 0 88.0147 34.1831
    endloop
  endfacet
  facet normal 1.92296e-016 -0.5 -0.866025
    outer loop
      vertex 3.5 93.5229 31.7307
      vertex 3.5 90.8977 33.2464
      vertex 0 93.5229 31.7307
    endloop
  endfacet
  facet normal 1.92296e-016 -0.5 -0.866025
    outer loop
      vertex 0 93.5229 31.7307
      vertex 3.5 90.8977 33.2464
      vertex 0 90.8977 33.2464
    endloop
  endfacet
  facet normal 1.65011e-016 -0.66913 -0.743145
    outer loop
      vertex 3.5 95.7756 29.7024
      vertex 3.5 93.5229 31.7307
      vertex 0 95.7756 29.7024
    endloop
  endfacet
  facet normal 1.65011e-016 -0.66913 -0.743145
    outer loop
      vertex 0 95.7756 29.7024
      vertex 3.5 93.5229 31.7307
      vertex 0 93.5229 31.7307
    endloop
  endfacet
  facet normal 1.30515e-016 -0.809017 -0.587785
    outer loop
      vertex 0 97.5574 27.25
      vertex 3.5 97.5574 27.25
      vertex 3.5 95.7756 29.7024
    endloop
  endfacet
  facet normal 1.30515e-016 -0.809017 -0.587785
    outer loop
      vertex 0 95.7756 29.7024
      vertex 0 97.5574 27.25
      vertex 3.5 95.7756 29.7024
    endloop
  endfacet
  facet normal 9.03137e-017 -0.913545 -0.406737
    outer loop
      vertex 0 98.7903 24.4807
      vertex 3.5 98.7903 24.4807
      vertex 3.5 97.5574 27.25
    endloop
  endfacet
  facet normal 9.03137e-017 -0.913545 -0.406737
    outer loop
      vertex 0 97.5574 27.25
      vertex 0 98.7903 24.4807
      vertex 3.5 97.5574 27.25
    endloop
  endfacet
  facet normal 4.61657e-017 -0.978148 -0.207912
    outer loop
      vertex 0 99.4206 21.5157
      vertex 3.5 99.4206 21.5157
      vertex 3.5 98.7903 24.4807
    endloop
  endfacet
  facet normal 4.61657e-017 -0.978148 -0.207912
    outer loop
      vertex 0 98.7903 24.4807
      vertex 0 99.4206 21.5157
      vertex 3.5 98.7903 24.4807
    endloop
  endfacet
  facet normal 0 -1 0
    outer loop
      vertex 3.5 99.4206 18.4843
      vertex 3.5 99.4206 21.5157
      vertex 0 99.4206 21.5157
    endloop
  endfacet
  facet normal 0 -1 0
    outer loop
      vertex 0 99.4206 18.4843
      vertex 3.5 99.4206 18.4843
      vertex 0 99.4206 21.5157
    endloop
  endfacet
  facet normal -4.61657e-017 -0.978148 0.207912
    outer loop
      vertex 3.5 98.7903 15.5193
      vertex 3.5 99.4206 18.4843
      vertex 0 99.4206 18.4843
    endloop
  endfacet
  facet normal -4.61657e-017 -0.978148 0.207912
    outer loop
      vertex 0 98.7903 15.5193
      vertex 3.5 98.7903 15.5193
      vertex 0 99.4206 18.4843
    endloop
  endfacet
  facet normal -9.03137e-017 -0.913545 0.406737
    outer loop
      vertex 3.5 97.5574 12.75
      vertex 3.5 98.7903 15.5193
      vertex 0 98.7903 15.5193
    endloop
  endfacet
  facet normal -9.03137e-017 -0.913545 0.406737
    outer loop
      vertex 0 97.5574 12.75
      vertex 3.5 97.5574 12.75
      vertex 0 98.7903 15.5193
    endloop
  endfacet
  facet normal -1.30515e-016 -0.809017 0.587785
    outer loop
      vertex 3.5 95.7756 10.2976
      vertex 3.5 97.5574 12.75
      vertex 0 97.5574 12.75
    endloop
  endfacet
  facet normal -1.30515e-016 -0.809017 0.587785
    outer loop
      vertex 0 95.7756 10.2976
      vertex 3.5 95.7756 10.2976
      vertex 0 97.5574 12.75
    endloop
  endfacet
  facet normal -1.65011e-016 -0.66913 0.743145
    outer loop
      vertex 3.5 93.5229 8.26925
      vertex 3.5 95.7756 10.2976
      vertex 0 95.7756 10.2976
    endloop
  endfacet
  facet normal -1.65011e-016 -0.66913 0.743145
    outer loop
      vertex 0 93.5229 8.26925
      vertex 3.5 93.5229 8.26925
      vertex 0 95.7756 10.2976
    endloop
  endfacet
  facet normal -1.92296e-016 -0.5 0.866025
    outer loop
      vertex 3.5 90.8977 6.75359
      vertex 3.5 93.5229 8.26925
      vertex 0 93.5229 8.26925
    endloop
  endfacet
  facet normal -1.92296e-016 -0.5 0.866025
    outer loop
      vertex 0 90.8977 6.75359
      vertex 3.5 90.8977 6.75359
      vertex 0 93.5229 8.26925
    endloop
  endfacet
  facet normal -2.11177e-016 -0.309017 0.951056
    outer loop
      vertex 3.5 88.0147 5.81686
      vertex 3.5 90.8977 6.75359
      vertex 0 90.8977 6.75359
    endloop
  endfacet
  facet normal -2.11177e-016 -0.309017 0.951056
    outer loop
      vertex 0 88.0147 5.81686
      vertex 3.5 88.0147 5.81686
      vertex 0 90.8977 6.75359
    endloop
  endfacet
  facet normal -2.20828e-016 -0.104529 0.994522
    outer loop
      vertex 3.5 85 5.5
      vertex 3.5 88.0147 5.81686
      vertex 0 88.0147 5.81686
    endloop
  endfacet
  facet normal -2.20828e-016 -0.104529 0.994522
    outer loop
      vertex 0 85 5.5
      vertex 3.5 85 5.5
      vertex 0 88.0147 5.81686
    endloop
  endfacet
  facet normal -2.20828e-016 0.104529 0.994522
    outer loop
      vertex 3.5 81.9853 5.81686
      vertex 3.5 85 5.5
      vertex 0 85 5.5
    endloop
  endfacet
  facet normal -2.20828e-016 0.104529 0.994522
    outer loop
      vertex 0 81.9853 5.81686
      vertex 3.5 81.9853 5.81686
      vertex 0 85 5.5
    endloop
  endfacet
  facet normal -2.11177e-016 0.309017 0.951056
    outer loop
      vertex 3.5 79.1023 6.75359
      vertex 3.5 81.9853 5.81686
      vertex 0 81.9853 5.81686
    endloop
  endfacet
  facet normal -2.11177e-016 0.309017 0.951056
    outer loop
      vertex 0 79.1023 6.75359
      vertex 3.5 79.1023 6.75359
      vertex 0 81.9853 5.81686
    endloop
  endfacet
  facet normal -1.92296e-016 0.5 0.866025
    outer loop
      vertex 3.5 76.4771 8.26925
      vertex 3.5 79.1023 6.75359
      vertex 0 79.1023 6.75359
    endloop
  endfacet
  facet normal -1.92296e-016 0.5 0.866025
    outer loop
      vertex 0 76.4771 8.26925
      vertex 3.5 76.4771 8.26925
      vertex 0 79.1023 6.75359
    endloop
  endfacet
  facet normal -1.65011e-016 0.66913 0.743145
    outer loop
      vertex 3.5 74.2244 10.2976
      vertex 3.5 76.4771 8.26925
      vertex 0 76.4771 8.26925
    endloop
  endfacet
  facet normal -1.65011e-016 0.66913 0.743145
    outer loop
      vertex 0 74.2244 10.2976
      vertex 3.5 74.2244 10.2976
      vertex 0 76.4771 8.26925
    endloop
  endfacet
  facet normal -1.30515e-016 0.809017 0.587785
    outer loop
      vertex 3.5 74.2244 10.2976
      vertex 0 74.2244 10.2976
      vertex 3.5 72.4426 12.75
    endloop
  endfacet
  facet normal -1.30515e-016 0.809017 0.587785
    outer loop
      vertex 3.5 72.4426 12.75
      vertex 0 74.2244 10.2976
      vertex 0 72.4426 12.75
    endloop
  endfacet
  facet normal -9.03137e-017 0.913545 0.406737
    outer loop
      vertex 3.5 72.4426 12.75
      vertex 0 72.4426 12.75
      vertex 3.5 71.2097 15.5193
    endloop
  endfacet
  facet normal -9.03137e-017 0.913545 0.406737
    outer loop
      vertex 3.5 71.2097 15.5193
      vertex 0 72.4426 12.75
      vertex 0 71.2097 15.5193
    endloop
  endfacet
  facet normal -4.61657e-017 0.978148 0.207912
    outer loop
      vertex 3.5 71.2097 15.5193
      vertex 0 71.2097 15.5193
      vertex 3.5 70.5794 18.4843
    endloop
  endfacet
  facet normal -4.61657e-017 0.978148 0.207912
    outer loop
      vertex 3.5 70.5794 18.4843
      vertex 0 71.2097 15.5193
      vertex 0 70.5794 18.4843
    endloop
  endfacet
  facet normal 2.22045e-016 0 -1
    outer loop
      vertex 3.5 73.8817 9.21353
      vertex 3.5 72.1183 9.21353
      vertex 0 73.8817 9.21352
    endloop
  endfacet
  facet normal 2.22045e-016 0 -1
    outer loop
      vertex 0 73.8817 9.21352
      vertex 3.5 72.1183 9.21353
      vertex 0 72.1183 9.21352
    endloop
  endfacet
  facet normal 6.86156e-017 0.951056 -0.309017
    outer loop
      vertex 3.5 72.1183 9.21353
      vertex 3.5 71.5734 7.53648
      vertex 0 72.1183 9.21352
    endloop
  endfacet
  facet normal 6.86156e-017 0.951056 -0.309017
    outer loop
      vertex 0 72.1183 9.21352
      vertex 3.5 71.5734 7.53648
      vertex 0 71.5734 7.53647
    endloop
  endfacet
  facet normal 6.86156e-017 -0.951056 -0.309017
    outer loop
      vertex 0 74.4266 7.53647
      vertex 3.5 74.4266 7.53648
      vertex 3.5 73.8817 9.21353
    endloop
  endfacet
  facet normal 6.86156e-017 -0.951056 -0.309017
    outer loop
      vertex 0 73.8817 9.21352
      vertex 0 74.4266 7.53647
      vertex 3.5 73.8817 9.21353
    endloop
  endfacet
  facet normal -1.79638e-016 -0.587785 0.809017
    outer loop
      vertex 3.5 73 6.5
      vertex 3.5 74.4266 7.53648
      vertex 0 74.4266 7.53647
    endloop
  endfacet
  facet normal -1.79638e-016 -0.587785 0.809017
    outer loop
      vertex 0 73 6.5
      vertex 3.5 73 6.5
      vertex 0 74.4266 7.53647
    endloop
  endfacet
  facet normal -1.79638e-016 0.587785 0.809017
    outer loop
      vertex 3.5 71.5734 7.53648
      vertex 3.5 73 6.5
      vertex 0 73 6.5
    endloop
  endfacet
  facet normal -1.79638e-016 0.587785 0.809017
    outer loop
      vertex 0 71.5734 7.53647
      vertex 3.5 71.5734 7.53648
      vertex 0 73 6.5
    endloop
  endfacet
  facet normal 2.22045e-016 0 -1
    outer loop
      vertex 3.5 73.8817 33.2135
      vertex 3.5 72.1183 33.2135
      vertex 0 73.8817 33.2135
    endloop
  endfacet
  facet normal 2.22045e-016 0 -1
    outer loop
      vertex 0 73.8817 33.2135
      vertex 3.5 72.1183 33.2135
      vertex 0 72.1183 33.2135
    endloop
  endfacet
  facet normal 6.86156e-017 0.951056 -0.309017
    outer loop
      vertex 3.5 72.1183 33.2135
      vertex 3.5 71.5734 31.5365
      vertex 0 72.1183 33.2135
    endloop
  endfacet
  facet normal 6.86156e-017 0.951056 -0.309017
    outer loop
      vertex 0 72.1183 33.2135
      vertex 3.5 71.5734 31.5365
      vertex 0 71.5734 31.5365
    endloop
  endfacet
  facet normal 6.86156e-017 -0.951056 -0.309017
    outer loop
      vertex 0 74.4266 31.5365
      vertex 3.5 74.4266 31.5365
      vertex 3.5 73.8817 33.2135
    endloop
  endfacet
  facet normal 6.86156e-017 -0.951056 -0.309017
    outer loop
      vertex 0 73.8817 33.2135
      vertex 0 74.4266 31.5365
      vertex 3.5 73.8817 33.2135
    endloop
  endfacet
  facet normal -1.79638e-016 -0.587785 0.809017
    outer loop
      vertex 3.5 73 30.5
      vertex 3.5 74.4266 31.5365
      vertex 0 74.4266 31.5365
    endloop
  endfacet
  facet normal -1.79638e-016 -0.587785 0.809017
    outer loop
      vertex 0 73 30.5
      vertex 3.5 73 30.5
      vertex 0 74.4266 31.5365
    endloop
  endfacet
  facet normal -1.79638e-016 0.587785 0.809017
    outer loop
      vertex 3.5 71.5734 31.5365
      vertex 3.5 73 30.5
      vertex 0 73 30.5
    endloop
  endfacet
  facet normal -1.79638e-016 0.587785 0.809017
    outer loop
      vertex 0 71.5734 31.5365
      vertex 3.5 71.5734 31.5365
      vertex 0 73 30.5
    endloop
  endfacet
  facet normal 2.22045e-016 0 -1
    outer loop
      vertex 3.5 97.8817 9.21353
      vertex 3.5 96.1183 9.21353
      vertex 0 97.8817 9.21352
    endloop
  endfacet
  facet normal 2.22045e-016 0 -1
    outer loop
      vertex 0 97.8817 9.21352
      vertex 3.5 96.1183 9.21353
      vertex 0 96.1183 9.21352
    endloop
  endfacet
  facet normal 6.86156e-017 0.951056 -0.309017
    outer loop
      vertex 3.5 96.1183 9.21353
      vertex 3.5 95.5734 7.53648
      vertex 0 96.1183 9.21352
    endloop
  endfacet
  facet normal 6.86156e-017 0.951056 -0.309017
    outer loop
      vertex 0 96.1183 9.21352
      vertex 3.5 95.5734 7.53648
      vertex 0 95.5734 7.53647
    endloop
  endfacet
  facet normal 6.86156e-017 -0.951056 -0.309017
    outer loop
      vertex 0 98.4266 7.53647
      vertex 3.5 98.4266 7.53648
      vertex 3.5 97.8817 9.21353
    endloop
  endfacet
  facet normal 6.86156e-017 -0.951056 -0.309017
    outer loop
      vertex 0 97.8817 9.21352
      vertex 0 98.4266 7.53647
      vertex 3.5 97.8817 9.21353
    endloop
  endfacet
  facet normal -1.79638e-016 -0.587785 0.809017
    outer loop
      vertex 3.5 97 6.5
      vertex 3.5 98.4266 7.53648
      vertex 0 98.4266 7.53647
    endloop
  endfacet
  facet normal -1.79638e-016 -0.587785 0.809017
    outer loop
      vertex 0 97 6.5
      vertex 3.5 97 6.5
      vertex 0 98.4266 7.53647
    endloop
  endfacet
  facet normal -1.79638e-016 0.587785 0.809017
    outer loop
      vertex 3.5 95.5734 7.53648
      vertex 3.5 97 6.5
      vertex 0 97 6.5
    endloop
  endfacet
  facet normal -1.79638e-016 0.587785 0.809017
    outer loop
      vertex 0 95.5734 7.53647
      vertex 3.5 95.5734 7.53648
      vertex 0 97 6.5
    endloop
  endfacet
  facet normal 2.22045e-016 0 -1
    outer loop
      vertex 3.5 97.8817 33.2135
      vertex 3.5 96.1183 33.2135
      vertex 0 97.8817 33.2135
    endloop
  endfacet
  facet normal 2.22045e-016 0 -1
    outer loop
      vertex 0 97.8817 33.2135
      vertex 3.5 96.1183 33.2135
      vertex 0 96.1183 33.2135
    endloop
  endfacet
  facet normal 6.86156e-017 0.951056 -0.309017
    outer loop
      vertex 3.5 96.1183 33.2135
      vertex 3.5 95.5734 31.5365
      vertex 0 96.1183 33.2135
    endloop
  endfacet
  facet normal 6.86156e-017 0.951056 -0.309017
    outer loop
      vertex 0 96.1183 33.2135
      vertex 3.5 95.5734 31.5365
      vertex 0 95.5734 31.5365
    endloop
  endfacet
  facet normal 6.86156e-017 -0.951056 -0.309017
    outer loop
      vertex 0 98.4266 31.5365
      vertex 3.5 98.4266 31.5365
      vertex 3.5 97.8817 33.2135
    endloop
  endfacet
  facet normal 6.86156e-017 -0.951056 -0.309017
    outer loop
      vertex 0 97.8817 33.2135
      vertex 0 98.4266 31.5365
      vertex 3.5 97.8817 33.2135
    endloop
  endfacet
  facet normal -1.79638e-016 -0.587785 0.809017
    outer loop
      vertex 3.5 97 30.5
      vertex 3.5 98.4266 31.5365
      vertex 0 98.4266 31.5365
    endloop
  endfacet
  facet normal -1.79638e-016 -0.587785 0.809017
    outer loop
      vertex 0 97 30.5
      vertex 3.5 97 30.5
      vertex 0 98.4266 31.5365
    endloop
  endfacet
  facet normal -1.79638e-016 0.587785 0.809017
    outer loop
      vertex 3.5 95.5734 31.5365
      vertex 3.5 97 30.5
      vertex 0 97 30.5
    endloop
  endfacet
  facet normal -1.79638e-016 0.587785 0.809017
    outer loop
      vertex 0 95.5734 31.5365
      vertex 3.5 95.5734 31.5365
      vertex 0 97 30.5
    endloop
  endfacet
  facet normal 1 0 0
    outer loop
      vertex 25 5 3
      vertex 25 5 50
      vertex 25 0 50
    endloop
  endfacet
  facet normal 1 0 0
    outer loop
      vertex 25 0 3
      vertex 25 5 3
      vertex 25 0 50
    endloop
  endfacet
  facet normal 0 0 1
    outer loop
      vertex 25 5 3
      vertex 25 0 3
      vertex 120 0 3
    endloop
  endfacet
  facet normal 0 0 1
    outer loop
      vertex 126.5 104 3
      vertex 25 5 3
      vertex 120 5 3
    endloop
  endfacet
  facet normal 0 0 1
    outer loop
      vertex 120 5 3
      vertex 25 5 3
      vertex 120 0 3
    endloop
  endfacet
  facet normal 0 0 1
    outer loop
      vertex 126.5 104 3
      vertex 120 5 3
      vertex 126.5 5 3
    endloop
  endfacet
  facet normal 0 0 1
    outer loop
      vertex 126 104 3
      vertex 25 5 3
      vertex 126.5 104 3
    endloop
  endfacet
  facet normal 0 0 1
    outer loop
      vertex 126 110 3
      vertex 25 5 3
      vertex 126 104 3
    endloop
  endfacet
  facet normal 0 0 1
    outer loop
      vertex 90 104 3
      vertex 25 5 3
      vertex 126 110 3
    endloop
  endfacet
  facet normal 0 0 1
    outer loop
      vertex 90 110 3
      vertex 90 104 3
      vertex 126 110 3
    endloop
  endfacet
  facet normal 0 0 1
    outer loop
      vertex 90 104 3
      vertex 78.8 96.6144 3
      vertex 25 5 3
    endloop
  endfacet
  facet normal 0 0 1
    outer loop
      vertex 3.5 5 3
      vertex 7.4 27 3
      vertex 3.5 104 3
    endloop
  endfacet
  facet normal 0 0 1
    outer loop
      vertex 90 104 3
      vertex 10.6 98 3
      vertex 77.2 99.3856 3
    endloop
  endfacet
  facet normal 0 0 1
    outer loop
      vertex 7.4 27 3
      vertex 8.2 28.3856 3
      vertex 3.5 104 3
    endloop
  endfacet
  facet normal 0 0 1
    outer loop
      vertex 8.2 28.3856 3
      vertex 9.8 28.3856 3
      vertex 3.5 104 3
    endloop
  endfacet
  facet normal 0 0 1
    outer loop
      vertex 90 104 3
      vertex 78.8 99.3856 3
      vertex 79.6 98 3
    endloop
  endfacet
  facet normal 0 0 1
    outer loop
      vertex 9.8 28.3856 3
      vertex 10.6 27 3
      vertex 3.5 104 3
    endloop
  endfacet
  facet normal 0 0 1
    outer loop
      vertex 90 104 3
      vertex 79.6 98 3
      vertex 78.8 96.6144 3
    endloop
  endfacet
  facet normal 0 0 1
    outer loop
      vertex 90 104 3
      vertex 77.2 99.3856 3
      vertex 78.8 99.3856 3
    endloop
  endfacet
  facet normal 0 0 1
    outer loop
      vertex 3.5 5 3
      vertex 8.2 25.6144 3
      vertex 7.4 27 3
    endloop
  endfacet
  facet normal 0 0 1
    outer loop
      vertex 78.8 96.6144 3
      vertex 77.2 96.6144 3
      vertex 25 5 3
    endloop
  endfacet
  facet normal 0 0 1
    outer loop
      vertex 3.5 104 3
      vertex 25 5 3
      vertex 7.4 98 3
    endloop
  endfacet
  facet normal 0 0 1
    outer loop
      vertex 3.5 104 3
      vertex 7.4 98 3
      vertex 8.2 99.3856 3
    endloop
  endfacet
  facet normal 0 0 1
    outer loop
      vertex 9.8 99.3856 3
      vertex 10.6 98 3
      vertex 90 104 3
    endloop
  endfacet
  facet normal 0 0 1
    outer loop
      vertex 9.8 96.6144 3
      vertex 25 5 3
      vertex 10.6 98 3
    endloop
  endfacet
  facet normal 0 0 1
    outer loop
      vertex 8.2 96.6144 3
      vertex 25 5 3
      vertex 9.8 96.6144 3
    endloop
  endfacet
  facet normal 0 0 1
    outer loop
      vertex 7.4 98 3
      vertex 25 5 3
      vertex 8.2 96.6144 3
    endloop
  endfacet
  facet normal 0 0 1
    outer loop
      vertex 10.6 98 3
      vertex 25 5 3
      vertex 76.4 98 3
    endloop
  endfacet
  facet normal 0 0 1
    outer loop
      vertex 10.6 98 3
      vertex 76.4 98 3
      vertex 77.2 99.3856 3
    endloop
  endfacet
  facet normal 0 0 1
    outer loop
      vertex 76.4 98 3
      vertex 25 5 3
      vertex 77.2 96.6144 3
    endloop
  endfacet
  facet normal 0 0 1
    outer loop
      vertex 3.5 5 3
      vertex 9.8 25.6144 3
      vertex 8.2 25.6144 3
    endloop
  endfacet
  facet normal 0 0 1
    outer loop
      vertex 3.5 5 3
      vertex 10.6 27 3
      vertex 9.8 25.6144 3
    endloop
  endfacet
  facet normal 0 0 1
    outer loop
      vertex 10.6 27 3
      vertex 25 5 3
      vertex 3.5 104 3
    endloop
  endfacet
  facet normal 0 0 1
    outer loop
      vertex 3.5 5 3
      vertex 25 5 3
      vertex 10.6 27 3
    endloop
  endfacet
  facet normal 0 0 1
    outer loop
      vertex 90 104 3
      vertex 8.2 99.3856 3
      vertex 9.8 99.3856 3
    endloop
  endfacet
  facet normal 0 0 1
    outer loop
      vertex 90 104 3
      vertex 3.5 104 3
      vertex 8.2 99.3856 3
    endloop
  endfacet
  facet normal -1 0 0
    outer loop
      vertex 120 5 50
      vertex 120 5 3
      vertex 120 0 50
    endloop
  endfacet
  facet normal -1 0 0
    outer loop
      vertex 120 0 50
      vertex 120 5 3
      vertex 120 0 3
    endloop
  endfacet
  facet normal 0 0 1
    outer loop
      vertex 120 5 50
      vertex 120 0 50
      vertex 130 0 50
    endloop
  endfacet
  facet normal 0 0 1
    outer loop
      vertex 126.5 5 50
      vertex 120 5 50
      vertex 130 0 50
    endloop
  endfacet
  facet normal 0 0 1
    outer loop
      vertex 126 110 50
      vertex 126 104 50
      vertex 130 110 50
    endloop
  endfacet
  facet normal 0 0 1
    outer loop
      vertex 126 104 50
      vertex 126.5 104 50
      vertex 130 110 50
    endloop
  endfacet
  facet normal 0 0 1
    outer loop
      vertex 130 110 50
      vertex 126.5 5 50
      vertex 130 0 50
    endloop
  endfacet
  facet normal 0 0 1
    outer loop
      vertex 126.5 104 50
      vertex 126.5 5 50
      vertex 130 110 50
    endloop
  endfacet
  facet normal 0 0 1
    outer loop
      vertex 136.7 101.114 5
      vertex 130 95 5
      vertex 145 95 5
    endloop
  endfacet
  facet normal 0 0 1
    outer loop
      vertex 130 110 5
      vertex 130 95 5
      vertex 136.7 101.114 5
    endloop
  endfacet
  facet normal 0 0 1
    outer loop
      vertex 130 110 5
      vertex 136.7 101.114 5
      vertex 135.9 102.5 5
    endloop
  endfacet
  facet normal 0 0 1
    outer loop
      vertex 145 110 5
      vertex 130 110 5
      vertex 136.7 103.886 5
    endloop
  endfacet
  facet normal 0 0 1
    outer loop
      vertex 145 110 5
      vertex 138.3 103.886 5
      vertex 145 95 5
    endloop
  endfacet
  facet normal 0 0 1
    outer loop
      vertex 145 110 5
      vertex 136.7 103.886 5
      vertex 138.3 103.886 5
    endloop
  endfacet
  facet normal 0 0 1
    outer loop
      vertex 138.3 103.886 5
      vertex 139.1 102.5 5
      vertex 145 95 5
    endloop
  endfacet
  facet normal 0 0 1
    outer loop
      vertex 139.1 102.5 5
      vertex 138.3 101.114 5
      vertex 145 95 5
    endloop
  endfacet
  facet normal 0 0 1
    outer loop
      vertex 138.3 101.114 5
      vertex 136.7 101.114 5
      vertex 145 95 5
    endloop
  endfacet
  facet normal 0 0 1
    outer loop
      vertex 135.9 102.5 5
      vertex 136.7 103.886 5
      vertex 130 110 5
    endloop
  endfacet
  facet normal 0 0 1
    outer loop
      vertex 136.7 16.1144 5
      vertex 130 10 5
      vertex 145 10 5
    endloop
  endfacet
  facet normal 0 0 1
    outer loop
      vertex 130 25 5
      vertex 130 10 5
      vertex 136.7 16.1144 5
    endloop
  endfacet
  facet normal 0 0 1
    outer loop
      vertex 130 25 5
      vertex 136.7 16.1144 5
      vertex 135.9 17.5 5
    endloop
  endfacet
  facet normal 0 0 1
    outer loop
      vertex 145 25 5
      vertex 130 25 5
      vertex 136.7 18.8856 5
    endloop
  endfacet
  facet normal 0 0 1
    outer loop
      vertex 145 25 5
      vertex 138.3 18.8856 5
      vertex 145 10 5
    endloop
  endfacet
  facet normal 0 0 1
    outer loop
      vertex 145 25 5
      vertex 136.7 18.8856 5
      vertex 138.3 18.8856 5
    endloop
  endfacet
  facet normal 0 0 1
    outer loop
      vertex 138.3 18.8856 5
      vertex 139.1 17.5 5
      vertex 145 10 5
    endloop
  endfacet
  facet normal 0 0 1
    outer loop
      vertex 139.1 17.5 5
      vertex 138.3 16.1144 5
      vertex 145 10 5
    endloop
  endfacet
  facet normal 0 0 1
    outer loop
      vertex 138.3 16.1144 5
      vertex 136.7 16.1144 5
      vertex 145 10 5
    endloop
  endfacet
  facet normal 0 0 1
    outer loop
      vertex 135.9 17.5 5
      vertex 136.7 18.8856 5
      vertex 130 25 5
    endloop
  endfacet
  facet normal -1 0 0
    outer loop
      vertex 126 110 50
      vertex 126 110 3
      vertex 126 104 50
    endloop
  endfacet
  facet normal -1 0 0
    outer loop
      vertex 126 104 50
      vertex 126 110 3
      vertex 126 104 3
    endloop
  endfacet
  facet normal 1 0 0
    outer loop
      vertex 90 110 3
      vertex 90 110 38
      vertex 90 104 38
    endloop
  endfacet
  facet normal 1 0 0
    outer loop
      vertex 90 104 3
      vertex 90 110 3
      vertex 90 104 38
    endloop
  endfacet
  facet normal 0 0 1
    outer loop
      vertex 90 104 38
      vertex 90 110 38
      vertex 5 110 38
    endloop
  endfacet
  facet normal 0 0 1
    outer loop
      vertex 5 104 38
      vertex 90 104 38
      vertex 5 110 38
    endloop
  endfacet
  facet normal 1 0 0
    outer loop
      vertex 5 110 38
      vertex 5 110 50
      vertex 5 104 50
    endloop
  endfacet
  facet normal 1 0 0
    outer loop
      vertex 5 104 38
      vertex 5 110 38
      vertex 5 104 50
    endloop
  endfacet
  facet normal 0 -1 0
    outer loop
      vertex 90 104 3
      vertex 90 104 38
      vertex 5 104 38
    endloop
  endfacet
  facet normal 0 -1 0
    outer loop
      vertex 3.5 104 3
      vertex 90 104 3
      vertex 5 104 38
    endloop
  endfacet
  facet normal 0 -1 0
    outer loop
      vertex 5 104 50
      vertex 3.5 104 50
      vertex 5 104 38
    endloop
  endfacet
  facet normal 0 -1 0
    outer loop
      vertex 3.5 104 50
      vertex 3.5 104 3
      vertex 5 104 38
    endloop
  endfacet
  facet normal 1 0 0
    outer loop
      vertex 3.5 72.1183 33.2135
      vertex 3.5 104 50
      vertex 3.5 5 50
    endloop
  endfacet
  facet normal 1 0 0
    outer loop
      vertex 3.5 95.7756 10.2976
      vertex 3.5 93.5229 8.26925
      vertex 3.5 95.5734 7.53648
    endloop
  endfacet
  facet normal 1 0 0
    outer loop
      vertex 3.5 70.5794 21.5157
      vertex 3.5 71.2097 24.4807
      vertex 3.5 5 50
    endloop
  endfacet
  facet normal 1 0 0
    outer loop
      vertex 3.5 71.2097 24.4807
      vertex 3.5 72.4426 27.25
      vertex 3.5 5 50
    endloop
  endfacet
  facet normal 1 0 0
    outer loop
      vertex 3.5 85 34.5
      vertex 3.5 88.0147 34.1831
      vertex 3.5 104 50
    endloop
  endfacet
  facet normal 1 0 0
    outer loop
      vertex 3.5 72.4426 27.25
      vertex 3.5 74.2244 29.7024
      vertex 3.5 5 50
    endloop
  endfacet
  facet normal 1 0 0
    outer loop
      vertex 3.5 73.8817 33.2135
      vertex 3.5 74.4266 31.5365
      vertex 3.5 76.4771 31.7307
    endloop
  endfacet
  facet normal 1 0 0
    outer loop
      vertex 3.5 79.1023 33.2464
      vertex 3.5 104 50
      vertex 3.5 76.4771 31.7307
    endloop
  endfacet
  facet normal 1 0 0
    outer loop
      vertex 3.5 99.4206 18.4843
      vertex 3.5 98.7903 15.5193
      vertex 3.5 104 3
    endloop
  endfacet
  facet normal 1 0 0
    outer loop
      vertex 3.5 99.4206 21.5157
      vertex 3.5 99.4206 18.4843
      vertex 3.5 104 3
    endloop
  endfacet
  facet normal 1 0 0
    outer loop
      vertex 3.5 90.8977 33.2464
      vertex 3.5 104 50
      vertex 3.5 88.0147 34.1831
    endloop
  endfacet
  facet normal 1 0 0
    outer loop
      vertex 3.5 97 30.5
      vertex 3.5 95.5734 31.5365
      vertex 3.5 95.7756 29.7024
    endloop
  endfacet
  facet normal 1 0 0
    outer loop
      vertex 3.5 93.5229 31.7307
      vertex 3.5 104 50
      vertex 3.5 90.8977 33.2464
    endloop
  endfacet
  facet normal 1 0 0
    outer loop
      vertex 3.5 96.1183 33.2135
      vertex 3.5 104 50
      vertex 3.5 93.5229 31.7307
    endloop
  endfacet
  facet normal 1 0 0
    outer loop
      vertex 3.5 98.7903 24.4807
      vertex 3.5 104 50
      vertex 3.5 97.5574 27.25
    endloop
  endfacet
  facet normal 1 0 0
    outer loop
      vertex 3.5 104 3
      vertex 3.5 104 50
      vertex 3.5 98.7903 24.4807
    endloop
  endfacet
  facet normal 1 0 0
    outer loop
      vertex 3.5 104 3
      vertex 3.5 98.7903 24.4807
      vertex 3.5 99.4206 21.5157
    endloop
  endfacet
  facet normal 1 0 0
    outer loop
      vertex 3.5 98.7903 15.5193
      vertex 3.5 97.5574 12.75
      vertex 3.5 104 3
    endloop
  endfacet
  facet normal 1 0 0
    outer loop
      vertex 3.5 95.7756 10.2976
      vertex 3.5 95.5734 7.53648
      vertex 3.5 96.1183 9.21353
    endloop
  endfacet
  facet normal 1 0 0
    outer loop
      vertex 3.5 98.4266 7.53648
      vertex 3.5 97 6.5
      vertex 3.5 104 3
    endloop
  endfacet
  facet normal 1 0 0
    outer loop
      vertex 3.5 97.8817 9.21353
      vertex 3.5 97.5574 12.75
      vertex 3.5 95.7756 10.2976
    endloop
  endfacet
  facet normal 1 0 0
    outer loop
      vertex 3.5 79.1023 33.2464
      vertex 3.5 81.9853 34.1831
      vertex 3.5 104 50
    endloop
  endfacet
  facet normal 1 0 0
    outer loop
      vertex 3.5 71.5734 7.53648
      vertex 3.5 72.1183 9.21353
      vertex 3.5 5 3
    endloop
  endfacet
  facet normal 1 0 0
    outer loop
      vertex 3.5 88.0147 5.81686
      vertex 3.5 104 3
      vertex 3.5 90.8977 6.75359
    endloop
  endfacet
  facet normal 1 0 0
    outer loop
      vertex 3.5 85 5.5
      vertex 3.5 104 3
      vertex 3.5 88.0147 5.81686
    endloop
  endfacet
  facet normal 1 0 0
    outer loop
      vertex 3.5 81.9853 5.81686
      vertex 3.5 79.1023 6.75359
      vertex 3.5 5 3
    endloop
  endfacet
  facet normal 1 0 0
    outer loop
      vertex 3.5 5 3
      vertex 3.5 104 3
      vertex 3.5 85 5.5
    endloop
  endfacet
  facet normal 1 0 0
    outer loop
      vertex 3.5 76.4771 8.26925
      vertex 3.5 74.2244 10.2976
      vertex 3.5 5 50
    endloop
  endfacet
  facet normal 1 0 0
    outer loop
      vertex 3.5 71.2097 15.5193
      vertex 3.5 70.5794 18.4843
      vertex 3.5 5 50
    endloop
  endfacet
  facet normal 1 0 0
    outer loop
      vertex 3.5 73.8817 9.21353
      vertex 3.5 76.4771 8.26925
      vertex 3.5 5 50
    endloop
  endfacet
  facet normal 1 0 0
    outer loop
      vertex 3.5 74.4266 7.53648
      vertex 3.5 79.1023 6.75359
      vertex 3.5 76.4771 8.26925
    endloop
  endfacet
  facet normal 1 0 0
    outer loop
      vertex 3.5 74.2244 10.2976
      vertex 3.5 72.4426 12.75
      vertex 3.5 5 50
    endloop
  endfacet
  facet normal 1 0 0
    outer loop
      vertex 3.5 72.4426 12.75
      vertex 3.5 71.2097 15.5193
      vertex 3.5 5 50
    endloop
  endfacet
  facet normal 1 0 0
    outer loop
      vertex 3.5 73 6.5
      vertex 3.5 71.5734 7.53648
      vertex 3.5 5 3
    endloop
  endfacet
  facet normal 1 0 0
    outer loop
      vertex 3.5 5 3
      vertex 3.5 72.1183 9.21353
      vertex 3.5 5 50
    endloop
  endfacet
  facet normal 1 0 0
    outer loop
      vertex 3.5 72.1183 9.21353
      vertex 3.5 73.8817 9.21353
      vertex 3.5 5 50
    endloop
  endfacet
  facet normal 1 0 0
    outer loop
      vertex 3.5 71.5734 31.5365
      vertex 3.5 72.1183 33.2135
      vertex 3.5 5 50
    endloop
  endfacet
  facet normal 1 0 0
    outer loop
      vertex 3.5 73 6.5
      vertex 3.5 79.1023 6.75359
      vertex 3.5 74.4266 7.53648
    endloop
  endfacet
  facet normal 1 0 0
    outer loop
      vertex 3.5 5 3
      vertex 3.5 79.1023 6.75359
      vertex 3.5 73 6.5
    endloop
  endfacet
  facet normal 1 0 0
    outer loop
      vertex 3.5 97.8817 9.21353
      vertex 3.5 98.4266 7.53648
      vertex 3.5 104 3
    endloop
  endfacet
  facet normal 1 0 0
    outer loop
      vertex 3.5 73.8817 33.2135
      vertex 3.5 104 50
      vertex 3.5 72.1183 33.2135
    endloop
  endfacet
  facet normal 1 0 0
    outer loop
      vertex 3.5 76.4771 31.7307
      vertex 3.5 104 50
      vertex 3.5 73.8817 33.2135
    endloop
  endfacet
  facet normal 1 0 0
    outer loop
      vertex 3.5 96.1183 9.21353
      vertex 3.5 97.8817 9.21353
      vertex 3.5 95.7756 10.2976
    endloop
  endfacet
  facet normal 1 0 0
    outer loop
      vertex 3.5 74.2244 29.7024
      vertex 3.5 76.4771 31.7307
      vertex 3.5 74.4266 31.5365
    endloop
  endfacet
  facet normal 1 0 0
    outer loop
      vertex 3.5 74.2244 29.7024
      vertex 3.5 73 30.5
      vertex 3.5 5 50
    endloop
  endfacet
  facet normal 1 0 0
    outer loop
      vertex 3.5 74.2244 29.7024
      vertex 3.5 74.4266 31.5365
      vertex 3.5 73 30.5
    endloop
  endfacet
  facet normal 1 0 0
    outer loop
      vertex 3.5 73 30.5
      vertex 3.5 71.5734 31.5365
      vertex 3.5 5 50
    endloop
  endfacet
  facet normal 1 0 0
    outer loop
      vertex 3.5 93.5229 8.26925
      vertex 3.5 90.8977 6.75359
      vertex 3.5 97 6.5
    endloop
  endfacet
  facet normal 1 0 0
    outer loop
      vertex 3.5 97 6.5
      vertex 3.5 95.5734 7.53648
      vertex 3.5 93.5229 8.26925
    endloop
  endfacet
  facet normal 1 0 0
    outer loop
      vertex 3.5 104 3
      vertex 3.5 97.5574 12.75
      vertex 3.5 97.8817 9.21353
    endloop
  endfacet
  facet normal 1 0 0
    outer loop
      vertex 3.5 81.9853 34.1831
      vertex 3.5 85 34.5
      vertex 3.5 104 50
    endloop
  endfacet
  facet normal 1 0 0
    outer loop
      vertex 3.5 96.1183 33.2135
      vertex 3.5 97.8817 33.2135
      vertex 3.5 104 50
    endloop
  endfacet
  facet normal 1 0 0
    outer loop
      vertex 3.5 97 6.5
      vertex 3.5 90.8977 6.75359
      vertex 3.5 104 3
    endloop
  endfacet
  facet normal 1 0 0
    outer loop
      vertex 3.5 95.5734 31.5365
      vertex 3.5 96.1183 33.2135
      vertex 3.5 93.5229 31.7307
    endloop
  endfacet
  facet normal 1 0 0
    outer loop
      vertex 3.5 98.4266 31.5365
      vertex 3.5 97 30.5
      vertex 3.5 97.5574 27.25
    endloop
  endfacet
  facet normal 1 0 0
    outer loop
      vertex 3.5 98.4266 31.5365
      vertex 3.5 104 50
      vertex 3.5 97.8817 33.2135
    endloop
  endfacet
  facet normal 1 0 0
    outer loop
      vertex 3.5 97.5574 27.25
      vertex 3.5 104 50
      vertex 3.5 98.4266 31.5365
    endloop
  endfacet
  facet normal 1 0 0
    outer loop
      vertex 3.5 97.5574 27.25
      vertex 3.5 97 30.5
      vertex 3.5 95.7756 29.7024
    endloop
  endfacet
  facet normal 1 0 0
    outer loop
      vertex 3.5 95.7756 29.7024
      vertex 3.5 95.5734 31.5365
      vertex 3.5 93.5229 31.7307
    endloop
  endfacet
  facet normal 1 0 0
    outer loop
      vertex 3.5 85 5.5
      vertex 3.5 81.9853 5.81686
      vertex 3.5 5 3
    endloop
  endfacet
  facet normal 1 0 0
    outer loop
      vertex 3.5 73.8817 9.21353
      vertex 3.5 74.4266 7.53648
      vertex 3.5 76.4771 8.26925
    endloop
  endfacet
  facet normal 1 0 0
    outer loop
      vertex 3.5 70.5794 18.4843
      vertex 3.5 70.5794 21.5157
      vertex 3.5 5 50
    endloop
  endfacet
  facet normal 0 1 0
    outer loop
      vertex 25 5 50
      vertex 25 5 3
      vertex 3.5 5 50
    endloop
  endfacet
  facet normal 0 1 0
    outer loop
      vertex 3.5 5 50
      vertex 25 5 3
      vertex 3.5 5 3
    endloop
  endfacet
  facet normal 0 -1 0
    outer loop
      vertex 126.5 104 3
      vertex 126.5 104 50
      vertex 126 104 50
    endloop
  endfacet
  facet normal 0 -1 0
    outer loop
      vertex 126 104 3
      vertex 126.5 104 3
      vertex 126 104 50
    endloop
  endfacet
  facet normal -1 0 0
    outer loop
      vertex 126.5 104 50
      vertex 126.5 104 3
      vertex 126.5 5 50
    endloop
  endfacet
  facet normal -1 0 0
    outer loop
      vertex 126.5 5 50
      vertex 126.5 104 3
      vertex 126.5 5 3
    endloop
  endfacet
  facet normal 0 1 0
    outer loop
      vertex 126.5 5 50
      vertex 126.5 5 3
      vertex 120 5 50
    endloop
  endfacet
  facet normal 0 1 0
    outer loop
      vertex 120 5 50
      vertex 126.5 5 3
      vertex 120 5 3
    endloop
  endfacet
endsolid OpenSCAD_Model
